<mxfile host="app.diagrams.net" modified="2020-10-04T05:01:22.779Z" agent="5.0 (Macintosh; Intel Mac OS X 10_14_6) AppleWebKit/537.36 (KHTML, like Gecko) Chrome/85.0.4183.121 Safari/537.36" etag="WEz0zwKdPaDb8fiBIcDB" version="13.7.7" type="github">
  <diagram id="e5w_ci9j37u1UkdT8y2q" name="Page-1">
    <mxGraphModel dx="3192" dy="2704" grid="1" gridSize="10" guides="1" tooltips="1" connect="1" arrows="1" fold="1" page="1" pageScale="1" pageWidth="827" pageHeight="1169" math="0" shadow="0">
      <root>
        <mxCell id="0" />
        <mxCell id="1" parent="0" />
        <mxCell id="QaVsNcGaxW52P_s51GDY-1" value="AWS Cloud" style="points=[[0,0],[0.25,0],[0.5,0],[0.75,0],[1,0],[1,0.25],[1,0.5],[1,0.75],[1,1],[0.75,1],[0.5,1],[0.25,1],[0,1],[0,0.75],[0,0.5],[0,0.25]];outlineConnect=0;html=1;whiteSpace=wrap;fontSize=12;fontStyle=0;shape=mxgraph.aws4.group;grIcon=mxgraph.aws4.group_aws_cloud_alt;verticalAlign=top;align=left;spacingLeft=30;dashed=0;gradientColor=#ffffff;shadow=0;" parent="1" vertex="1">
          <mxGeometry x="-450" y="-30" width="2160" height="1070" as="geometry" />
        </mxCell>
        <mxCell id="QaVsNcGaxW52P_s51GDY-3" value="VPC" style="points=[[0,0],[0.25,0],[0.5,0],[0.75,0],[1,0],[1,0.25],[1,0.5],[1,0.75],[1,1],[0.75,1],[0.5,1],[0.25,1],[0,1],[0,0.75],[0,0.5],[0,0.25]];outlineConnect=0;html=1;whiteSpace=wrap;fontSize=12;fontStyle=0;shape=mxgraph.aws4.group;grIcon=mxgraph.aws4.group_vpc;verticalAlign=top;align=left;spacingLeft=30;dashed=0;shadow=0;sketch=0;" parent="1" vertex="1">
          <mxGeometry x="120" y="300" width="1440" height="530" as="geometry" />
        </mxCell>
        <mxCell id="QaVsNcGaxW52P_s51GDY-4" value="Public subnet(&lt;span style=&quot;color: rgb(0 , 0 , 0) ; font-family: &amp;#34;arial&amp;#34; ; font-size: 14px ; background-color: rgb(234 , 243 , 254)&quot;&gt;ap-northeast-1c&lt;/span&gt;)&lt;br&gt;&lt;font face=&quot;arial&quot;&gt;&lt;span style=&quot;font-size: 14px ; background-color: rgb(230 , 230 , 230)&quot;&gt;10.0.1.0/24&lt;/span&gt;&lt;/font&gt;" style="points=[[0,0],[0.25,0],[0.5,0],[0.75,0],[1,0],[1,0.25],[1,0.5],[1,0.75],[1,1],[0.75,1],[0.5,1],[0.25,1],[0,1],[0,0.75],[0,0.5],[0,0.25]];outlineConnect=0;html=1;whiteSpace=wrap;fontSize=12;fontStyle=0;shape=mxgraph.aws4.group;grIcon=mxgraph.aws4.group_security_group;grStroke=0;strokeColor=#666666;fillColor=#f5f5f5;verticalAlign=top;align=left;spacingLeft=30;fontColor=#333333;" parent="1" vertex="1">
          <mxGeometry x="181" y="429" width="499" height="371" as="geometry" />
        </mxCell>
        <mxCell id="QaVsNcGaxW52P_s51GDY-5" value="Private subnet&lt;span style=&quot;color: rgb(51 , 51 , 51)&quot;&gt;(&lt;/span&gt;&lt;span style=&quot;color: rgb(0 , 0 , 0) ; font-family: &amp;#34;arial&amp;#34; ; font-size: 14px ; background-color: rgb(234 , 243 , 254)&quot;&gt;ap-northeast-1c&lt;/span&gt;&lt;span style=&quot;color: rgb(51 , 51 , 51)&quot;&gt;)&lt;br&gt;&lt;/span&gt;&lt;span style=&quot;color: rgb(0 , 0 , 0) ; font-family: &amp;#34;arial&amp;#34; ; font-size: 14px ; background-color: rgb(234 , 243 , 254)&quot;&gt;10.0.3.0/24&lt;/span&gt;&lt;span style=&quot;color: rgb(51 , 51 , 51)&quot;&gt;&lt;br&gt;&lt;/span&gt;" style="points=[[0,0],[0.25,0],[0.5,0],[0.75,0],[1,0],[1,0.25],[1,0.5],[1,0.75],[1,1],[0.75,1],[0.5,1],[0.25,1],[0,1],[0,0.75],[0,0.5],[0,0.25]];outlineConnect=0;gradientColor=none;html=1;whiteSpace=wrap;fontSize=12;fontStyle=0;shape=mxgraph.aws4.group;grIcon=mxgraph.aws4.group_security_group;grStroke=0;strokeColor=#147EBA;fillColor=#E6F2F8;verticalAlign=top;align=left;spacingLeft=30;fontColor=#147EBA;dashed=0;" parent="1" vertex="1">
          <mxGeometry x="940" y="440" width="270" height="280" as="geometry" />
        </mxCell>
        <mxCell id="QaVsNcGaxW52P_s51GDY-6" value="Private subnet(&lt;span style=&quot;color: rgb(0 , 0 , 0) ; font-family: &amp;#34;arial&amp;#34; ; font-size: 14px ; background-color: rgb(234 , 243 , 254)&quot;&gt;ap-northeast-1a)&lt;br&gt;&lt;/span&gt;&lt;span style=&quot;color: rgb(0 , 0 , 0) ; font-family: &amp;#34;arial&amp;#34; ; font-size: 14px ; background-color: rgb(234 , 243 , 254)&quot;&gt;10.0.2.0/24&lt;/span&gt;&lt;span style=&quot;color: rgb(0 , 0 , 0) ; font-family: &amp;#34;arial&amp;#34; ; font-size: 14px ; background-color: rgb(234 , 243 , 254)&quot;&gt;&lt;br&gt;&lt;/span&gt;" style="points=[[0,0],[0.25,0],[0.5,0],[0.75,0],[1,0],[1,0.25],[1,0.5],[1,0.75],[1,1],[0.75,1],[0.5,1],[0.25,1],[0,1],[0,0.75],[0,0.5],[0,0.25]];outlineConnect=0;gradientColor=none;html=1;whiteSpace=wrap;fontSize=12;fontStyle=0;shape=mxgraph.aws4.group;grIcon=mxgraph.aws4.group_security_group;grStroke=0;strokeColor=#147EBA;fillColor=#E6F2F8;verticalAlign=top;align=left;spacingLeft=30;fontColor=#147EBA;dashed=0;" parent="1" vertex="1">
          <mxGeometry x="1250" y="440" width="260" height="280" as="geometry" />
        </mxCell>
        <mxCell id="QaVsNcGaxW52P_s51GDY-8" value="" style="outlineConnect=0;fontColor=#232F3E;gradientColor=none;fillColor=#3334B9;strokeColor=none;dashed=0;verticalLabelPosition=bottom;verticalAlign=top;align=center;html=1;fontSize=12;fontStyle=0;aspect=fixed;pointerEvents=1;shape=mxgraph.aws4.rds_postgresql_instance;" parent="1" vertex="1">
          <mxGeometry x="1015" y="525" width="120" height="120" as="geometry" />
        </mxCell>
        <mxCell id="QaVsNcGaxW52P_s51GDY-63" style="edgeStyle=orthogonalEdgeStyle;rounded=0;orthogonalLoop=1;jettySize=auto;html=1;" parent="1" source="QaVsNcGaxW52P_s51GDY-9" target="QaVsNcGaxW52P_s51GDY-35" edge="1">
          <mxGeometry relative="1" as="geometry" />
        </mxCell>
        <mxCell id="QaVsNcGaxW52P_s51GDY-9" value="users" style="outlineConnect=0;gradientColor=none;fontColor=#545B64;strokeColor=none;fillColor=#879196;dashed=0;verticalLabelPosition=bottom;verticalAlign=top;align=center;html=1;fontSize=12;fontStyle=0;aspect=fixed;shape=mxgraph.aws4.illustration_users;pointerEvents=1" parent="1" vertex="1">
          <mxGeometry x="1135" y="130" width="130" height="130" as="geometry" />
        </mxCell>
        <mxCell id="QaVsNcGaxW52P_s51GDY-76" value="" style="edgeStyle=orthogonalEdgeStyle;rounded=0;orthogonalLoop=1;jettySize=auto;html=1;" parent="1" source="QaVsNcGaxW52P_s51GDY-10" target="QaVsNcGaxW52P_s51GDY-45" edge="1">
          <mxGeometry relative="1" as="geometry" />
        </mxCell>
        <mxCell id="QaVsNcGaxW52P_s51GDY-10" value="" style="outlineConnect=0;fontColor=#232F3E;gradientColor=none;fillColor=#5A30B5;strokeColor=none;dashed=0;verticalLabelPosition=bottom;verticalAlign=top;align=center;html=1;fontSize=12;fontStyle=0;aspect=fixed;pointerEvents=1;shape=mxgraph.aws4.internet_gateway;shadow=0;sketch=0;" parent="1" vertex="1">
          <mxGeometry x="650" y="585" width="71" height="71" as="geometry" />
        </mxCell>
        <mxCell id="QaVsNcGaxW52P_s51GDY-11" value="" style="shape=image;html=1;verticalAlign=top;verticalLabelPosition=bottom;labelBackgroundColor=#ffffff;imageAspect=0;aspect=fixed;image=https://cdn4.iconfinder.com/data/icons/logos-brands-5/24/nginx-128.png;shadow=0;sketch=0;gradientColor=none;" parent="1" vertex="1">
          <mxGeometry x="262.5" y="645" width="100" height="100" as="geometry" />
        </mxCell>
        <mxCell id="QaVsNcGaxW52P_s51GDY-17" value="" style="shape=image;html=1;verticalAlign=top;verticalLabelPosition=bottom;labelBackgroundColor=#ffffff;imageAspect=0;aspect=fixed;image=https://cdn4.iconfinder.com/data/icons/scripting-and-programming-languages/158/Ruby_on_Rails_2-128.png;shadow=0;sketch=0;gradientColor=none;" parent="1" vertex="1">
          <mxGeometry x="250" y="507.5" width="112.5" height="112.5" as="geometry" />
        </mxCell>
        <mxCell id="QaVsNcGaxW52P_s51GDY-18" value="" style="shape=image;html=1;verticalAlign=top;verticalLabelPosition=bottom;labelBackgroundColor=#ffffff;imageAspect=0;aspect=fixed;image=https://cdn3.iconfinder.com/data/icons/fantasy-and-role-play-game-adventure-quest/512/Unicorn-128.png;shadow=0;sketch=0;gradientColor=none;" parent="1" vertex="1">
          <mxGeometry x="440" y="520" width="100" height="100" as="geometry" />
        </mxCell>
        <mxCell id="QaVsNcGaxW52P_s51GDY-65" style="edgeStyle=orthogonalEdgeStyle;rounded=0;orthogonalLoop=1;jettySize=auto;html=1;" parent="1" source="QaVsNcGaxW52P_s51GDY-35" target="QaVsNcGaxW52P_s51GDY-53" edge="1">
          <mxGeometry relative="1" as="geometry" />
        </mxCell>
        <mxCell id="QaVsNcGaxW52P_s51GDY-35" value="" style="outlineConnect=0;dashed=0;verticalLabelPosition=bottom;verticalAlign=top;align=center;html=1;shape=mxgraph.aws3.route_53;fillColor=#F58536;gradientColor=none;shadow=0;sketch=0;" parent="1" vertex="1">
          <mxGeometry x="760" y="110" width="110" height="170" as="geometry" />
        </mxCell>
        <mxCell id="QaVsNcGaxW52P_s51GDY-70" style="edgeStyle=orthogonalEdgeStyle;rounded=0;orthogonalLoop=1;jettySize=auto;html=1;entryX=0.75;entryY=0;entryDx=0;entryDy=0;" parent="1" source="QaVsNcGaxW52P_s51GDY-40" target="QaVsNcGaxW52P_s51GDY-45" edge="1">
          <mxGeometry relative="1" as="geometry" />
        </mxCell>
        <mxCell id="QaVsNcGaxW52P_s51GDY-40" value="" style="dashed=0;outlineConnect=0;html=1;align=center;labelPosition=center;verticalLabelPosition=bottom;verticalAlign=top;shape=mxgraph.weblogos.github;shadow=0;sketch=0;gradientColor=none;" parent="1" vertex="1">
          <mxGeometry x="150" y="50" width="135" height="120" as="geometry" />
        </mxCell>
        <mxCell id="QaVsNcGaxW52P_s51GDY-41" value="" style="aspect=fixed;html=1;points=[];align=center;image;fontSize=12;image=img/lib/mscae/Docker.svg;shadow=0;sketch=0;gradientColor=none;" parent="1" vertex="1">
          <mxGeometry x="-140" y="320" width="129.88" height="106.5" as="geometry" />
        </mxCell>
        <mxCell id="QaVsNcGaxW52P_s51GDY-45" value="EC2 instance contents&lt;br&gt;&lt;span style=&quot;color: rgb(68 , 68 , 68) ; font-family: &amp;#34;helvetica neue&amp;#34; , &amp;#34;roboto&amp;#34; , &amp;#34;arial&amp;#34; , sans-serif ; font-size: 13px ; text-align: center ; background-color: rgb(230 , 230 , 230)&quot;&gt;10.0.1.20&lt;/span&gt;" style="points=[[0,0],[0.25,0],[0.5,0],[0.75,0],[1,0],[1,0.25],[1,0.5],[1,0.75],[1,1],[0.75,1],[0.5,1],[0.25,1],[0,1],[0,0.75],[0,0.5],[0,0.25]];outlineConnect=0;gradientColor=none;html=1;whiteSpace=wrap;fontSize=12;fontStyle=0;shape=mxgraph.aws4.group;grIcon=mxgraph.aws4.group_ec2_instance_contents;strokeColor=#D86613;fillColor=none;verticalAlign=top;align=left;spacingLeft=30;fontColor=#D86613;dashed=0;shadow=0;sketch=0;" parent="1" vertex="1">
          <mxGeometry x="194" y="480" width="366" height="280" as="geometry" />
        </mxCell>
        <mxCell id="QaVsNcGaxW52P_s51GDY-47" value="desktop" style="outlineConnect=0;gradientColor=none;fontColor=#545B64;strokeColor=none;fillColor=#879196;dashed=0;verticalLabelPosition=bottom;verticalAlign=top;align=center;html=1;fontSize=12;fontStyle=0;aspect=fixed;shape=mxgraph.aws4.illustration_desktop;pointerEvents=1;shadow=0;sketch=0;" parent="1" vertex="1">
          <mxGeometry x="-162.97" y="507.5" width="175.82" height="160" as="geometry" />
        </mxCell>
        <mxCell id="QaVsNcGaxW52P_s51GDY-77" style="edgeStyle=orthogonalEdgeStyle;rounded=0;orthogonalLoop=1;jettySize=auto;html=1;" parent="1" source="QaVsNcGaxW52P_s51GDY-53" target="QaVsNcGaxW52P_s51GDY-10" edge="1">
          <mxGeometry relative="1" as="geometry" />
        </mxCell>
        <mxCell id="QaVsNcGaxW52P_s51GDY-78" style="edgeStyle=orthogonalEdgeStyle;rounded=0;orthogonalLoop=1;jettySize=auto;html=1;" parent="1" source="QaVsNcGaxW52P_s51GDY-53" target="QaVsNcGaxW52P_s51GDY-8" edge="1">
          <mxGeometry relative="1" as="geometry" />
        </mxCell>
        <mxCell id="QaVsNcGaxW52P_s51GDY-53" value="" style="outlineConnect=0;dashed=0;verticalLabelPosition=bottom;verticalAlign=top;align=center;html=1;shape=mxgraph.aws3.router;fillColor=#F58534;gradientColor=none;shadow=0;sketch=0;" parent="1" vertex="1">
          <mxGeometry x="800" y="589" width="59" height="72" as="geometry" />
        </mxCell>
        <mxCell id="QaVsNcGaxW52P_s51GDY-59" style="edgeStyle=orthogonalEdgeStyle;rounded=0;orthogonalLoop=1;jettySize=auto;html=1;" parent="1" source="QaVsNcGaxW52P_s51GDY-57" target="QaVsNcGaxW52P_s51GDY-40" edge="1">
          <mxGeometry relative="1" as="geometry">
            <Array as="points">
              <mxPoint x="-85" y="110" />
            </Array>
          </mxGeometry>
        </mxCell>
        <mxCell id="QaVsNcGaxW52P_s51GDY-57" value="develop" style="fillColor=none;strokeColor=#5A6C86;verticalAlign=top;fontStyle=0;fontColor=#5A6C86;shadow=0;sketch=0;" parent="1" vertex="1">
          <mxGeometry x="-240" y="260" width="320" height="550" as="geometry" />
        </mxCell>
      </root>
    </mxGraphModel>
  </diagram>
</mxfile>
